<?xml version="1.0" standalone="no"?>
<!DOCTYPE svg PUBLIC "-//W3C//DTD SVG 20010904//EN"
 "http://www.w3.org/TR/2001/REC-SVG-20010904/DTD/svg10.dtd">
<svg version="1.0" xmlns="http://www.w3.org/2000/svg"
 width="95.000000pt" height="95.000000pt" viewBox="0 0 95.000000 95.000000"
 preserveAspectRatio="xMidYMid meet">
<metadata>
Created by potrace 1.11, written by Peter Selinger 2001-2013
</metadata>
<g transform="translate(0.000000,95.000000) scale(0.100000,-0.100000)"
fill="#000000" stroke="none">
<path d="M587 903 c-4 -3 -7 -47 -7 -96 l0 -89 -31 6 c-17 3 -98 6 -180 6
l-149 0 0 60 c0 53 -2 60 -19 60 -13 0 -21 8 -23 22 -2 13 -11 24 -20 26 -16
3 -18 -6 -18 -87 0 -85 -1 -90 -22 -93 -21 -3 -23 -9 -26 -65 -3 -54 -6 -63
-21 -63 -11 0 -22 -7 -25 -16 -3 -9 -6 -90 -6 -180 0 -157 -1 -164 -20 -164
-18 0 -20 -7 -20 -67 0 -80 8 -113 25 -113 7 0 16 11 19 25 4 16 13 25 25 25
13 0 21 8 23 23 2 13 9 21 18 19 8 -2 36 -6 61 -9 39 -5 49 -10 53 -29 4 -15
14 -24 26 -24 13 0 20 -7 20 -19 0 -13 -10 -21 -34 -25 -19 -4 -39 -13 -46
-21 -11 -13 29 -15 329 -15 289 0 341 2 341 14 0 16 -53 46 -82 46 -11 0 -26
7 -34 15 -9 8 -26 15 -39 15 -13 0 -27 5 -31 11 -14 23 17 33 95 31 44 -1 83
3 86 8 3 5 17 5 35 -2 50 -17 60 -7 60 66 0 59 -2 65 -22 68 -15 2 -24 11 -26
26 -2 14 -10 22 -23 22 -12 0 -19 7 -19 20 0 13 7 20 20 20 11 0 20 7 20 15 0
9 11 20 25 25 32 12 34 47 3 52 -19 2 -24 10 -26 46 -3 33 -7 42 -22 42 -12 0
-20 8 -22 23 -2 18 -10 23 -45 25 -34 3 -43 7 -43 22 0 12 -8 20 -22 22 -19 2
-24 10 -26 46 -3 34 -7 42 -23 42 -17 0 -19 7 -19 70 0 64 -2 70 -20 70 -11 0
-24 8 -27 18 -10 26 -33 39 -46 25z"/>
</g>
</svg>
